<svg width="36" height="36" viewBox="0 0 36 36" fill="none" xmlns="http://www.w3.org/2000/svg">
<g id="arrow-right-contained-01">
<path id="Icon" d="M18.536 25.2258C19.0664 25.8622 20.0122 25.9482 20.6486 25.4178C21.285 24.8875 21.371 23.9416 20.8407 23.3052L18.536 25.2258ZM14.7165 18.2992L13.5641 17.339C13.1006 17.8952 13.1006 18.7033 13.5641 19.2595L14.7165 18.2992ZM20.8407 13.2933C21.371 12.6569 21.285 11.711 20.6486 11.1807C20.0122 10.6503 19.0664 10.7363 18.536 11.3727L20.8407 13.2933ZM20.8407 23.3052L15.8688 17.339L13.5641 19.2595L18.536 25.2258L20.8407 23.3052ZM15.8688 19.2595L20.8407 13.2933L18.536 11.3727L13.5641 17.339L15.8688 19.2595ZM18 30C11.3726 30 6 24.6274 6 18H3C3 26.2843 9.71573 33 18 33V30ZM6 18C6 11.3726 11.3726 6 18 6V3C9.71573 3 3 9.71573 3 18H6ZM18 6C24.6274 6 30 11.3726 30 18H33C33 9.71573 26.2843 3 18 3V6ZM30 18C30 24.6274 24.6274 30 18 30V33C26.2843 33 33 26.2843 33 18H30Z" fill="black"/>
</g>
</svg>
