<svg width="37" height="36" viewBox="0 0 37 36" fill="none" xmlns="http://www.w3.org/2000/svg">
<g id="chart">
<path id="Vector" d="M32 34.125H5C4.385 34.125 3.875 33.615 3.875 33C3.875 32.385 4.385 31.875 5 31.875H32C32.615 31.875 33.125 32.385 33.125 33C33.125 33.615 32.615 34.125 32 34.125Z" fill="#555454"/>
<path id="Vector_2" d="M8.89996 29.6251H6.5C5.06 29.6251 3.875 28.4401 3.875 27.0001V14.0701C3.875 12.6301 5.06 11.4451 6.5 11.4451H8.89996C10.34 11.4451 11.525 12.6301 11.525 14.0701V27.0001C11.525 28.4401 10.34 29.6251 8.89996 29.6251ZM6.5 13.6801C6.29 13.6801 6.125 13.8451 6.125 14.0551V27.0001C6.125 27.2101 6.29 27.3751 6.5 27.3751H8.89996C9.10996 27.3751 9.27496 27.2101 9.27496 27.0001V14.0701C9.27496 13.8601 9.10996 13.6951 8.89996 13.6951H6.5V13.6801Z" fill="#555454"/>
<path id="Vector_3" d="M19.7003 29.625H17.3003C15.8603 29.625 14.6753 28.44 14.6753 27V9.28503C14.6753 7.84503 15.8603 6.66003 17.3003 6.66003H19.7003C21.1403 6.66003 22.3253 7.84503 22.3253 9.28503V27C22.3253 28.44 21.1403 29.625 19.7003 29.625ZM17.3003 8.91003C17.0903 8.91003 16.9253 9.07503 16.9253 9.28503V27C16.9253 27.21 17.0903 27.375 17.3003 27.375H19.7003C19.9103 27.375 20.0753 27.21 20.0753 27V9.28503C20.0753 9.07503 19.9103 8.91003 19.7003 8.91003H17.3003Z" fill="#555454"/>
<path id="Vector_4" d="M30.4998 29.625H28.0999C26.6599 29.625 25.4749 28.44 25.4749 27V4.5C25.4749 3.06 26.6599 1.875 28.0999 1.875H30.4998C31.9398 1.875 33.1248 3.06 33.1248 4.5V27C33.1248 28.44 31.9398 29.625 30.4998 29.625ZM28.0999 4.125C27.8899 4.125 27.7249 4.29 27.7249 4.5V27C27.7249 27.21 27.8899 27.375 28.0999 27.375H30.4998C30.7098 27.375 30.8748 27.21 30.8748 27V4.5C30.8748 4.29 30.7098 4.125 30.4998 4.125H28.0999Z" fill="#555454"/>
</g>
</svg>
