<svg width="60" height="60" viewBox="0 0 60 60" fill="none" xmlns="http://www.w3.org/2000/svg">
<path d="M38.6461 22.9569C39.296 22.3071 39.296 21.2535 38.6461 20.6036C37.9963 19.9537 36.9426 19.9537 36.2928 20.6036L29.625 27.2714L22.9572 20.6036C22.3074 19.9537 21.2537 19.9537 20.6039 20.6036C19.954 21.2535 19.954 22.3071 20.6039 22.9569L27.2717 29.6247L20.6038 36.2925C19.954 36.9424 19.954 37.996 20.6038 38.6459C21.2537 39.2957 22.3073 39.2957 22.9572 38.6459L29.625 31.9781L36.2928 38.6459C36.9427 39.2957 37.9963 39.2957 38.6461 38.6459C39.296 37.996 39.296 36.9424 38.6461 36.2925L31.9783 29.6247L38.6461 22.9569Z" fill="white"/>
<rect x="1.125" y="1.125" width="57" height="57" rx="28.5" stroke="white" stroke-width="2.25"/>
</svg>
