<svg width="36" height="36" viewBox="0 0 36 36" fill="none" xmlns="http://www.w3.org/2000/svg">
<g id="vuesax/outline/frame">
<g id="frame">
<path id="Vector" d="M12.405 34.125H6.345C3.33 34.125 1.875 32.73 1.875 29.85V6.15C1.875 3.27 3.345 1.875 6.345 1.875H12.405C15.42 1.875 16.875 3.27 16.875 6.15V29.85C16.875 32.73 15.405 34.125 12.405 34.125ZM6.345 4.125C4.44 4.125 4.125 4.635 4.125 6.15V29.85C4.125 31.365 4.44 31.875 6.345 31.875H12.405C14.31 31.875 14.625 31.365 14.625 29.85V6.15C14.625 4.635 14.31 4.125 12.405 4.125H6.345Z" fill="#555454"/>
<path id="Vector_2" d="M29.655 16.875H23.595C20.58 16.875 19.125 15.54 19.125 12.78V5.97C19.125 3.21 20.595 1.875 23.595 1.875H29.655C32.67 1.875 34.125 3.21 34.125 5.97V12.765C34.125 15.54 32.655 16.875 29.655 16.875ZM23.595 4.125C21.585 4.125 21.375 4.695 21.375 5.97V12.765C21.375 14.055 21.585 14.61 23.595 14.61H29.655C31.665 14.61 31.875 14.04 31.875 12.765V5.97C31.875 4.68 31.665 4.125 29.655 4.125H23.595Z" fill="#555454"/>
<path id="Vector_3" d="M29.655 34.125H23.595C20.58 34.125 19.125 32.655 19.125 29.655V23.595C19.125 20.58 20.595 19.125 23.595 19.125H29.655C32.67 19.125 34.125 20.595 34.125 23.595V29.655C34.125 32.655 32.655 34.125 29.655 34.125ZM23.595 21.375C21.825 21.375 21.375 21.825 21.375 23.595V29.655C21.375 31.425 21.825 31.875 23.595 31.875H29.655C31.425 31.875 31.875 31.425 31.875 29.655V23.595C31.875 21.825 31.425 21.375 29.655 21.375H23.595Z" fill="#555454"/>
</g>
</g>
</svg>
