<svg width="36" height="36" viewBox="0 0 36 36" fill="none" xmlns="http://www.w3.org/2000/svg">
<g id="vuesax/outline/verify">
<g id="verify">
<path id="Vector" d="M16.185 22.755C15.885 22.755 15.6 22.635 15.39 22.425L11.76 18.795C11.325 18.36 11.325 17.64 11.76 17.205C12.195 16.77 12.915 16.77 13.35 17.205L16.185 20.04L22.635 13.59C23.07 13.155 23.79 13.155 24.225 13.59C24.66 14.025 24.66 14.745 24.225 15.18L16.98 22.425C16.77 22.635 16.485 22.755 16.185 22.755Z" fill="#555454"/>
<path id="Vector_2" d="M18.0001 34.125C17.0551 34.125 16.1101 33.81 15.3751 33.18L13.0051 31.14C12.7651 30.93 12.1651 30.72 11.8501 30.72H9.27007C7.05007 30.72 5.25007 28.92 5.25007 26.7V24.135C5.25007 23.82 5.04007 23.235 4.83007 22.995L2.80507 20.61C1.57507 19.155 1.57507 16.86 2.80507 15.405L4.83007 13.02C5.04007 12.78 5.25007 12.195 5.25007 11.88V9.3C5.25007 7.08 7.05007 5.28 9.27007 5.28H11.8651C12.1801 5.28 12.7801 5.055 13.0201 4.86L15.3901 2.82C16.8601 1.56 19.1551 1.56 20.6251 2.82L22.9951 4.86C23.2351 5.07 23.8351 5.28 24.1501 5.28H26.7001C28.9201 5.28 30.7201 7.08 30.7201 9.3V11.85C30.7201 12.165 30.9451 12.765 31.1551 13.005L33.1951 15.375C34.4551 16.845 34.4551 19.14 33.1951 20.61L31.1551 22.98C30.9451 23.22 30.7201 23.82 30.7201 24.135V26.685C30.7201 28.905 28.9201 30.705 26.7001 30.705H24.1501C23.8351 30.705 23.2351 30.93 22.9951 31.125L20.6251 33.165C19.8901 33.81 18.9451 34.125 18.0001 34.125ZM9.27007 7.53C8.29507 7.53 7.50007 8.325 7.50007 9.3V11.865C7.50007 12.72 7.09507 13.815 6.54007 14.46L4.51507 16.845C3.99007 17.46 3.99007 18.525 4.51507 19.14L6.54007 21.525C7.09507 22.185 7.50007 23.265 7.50007 24.12V26.685C7.50007 27.66 8.29507 28.455 9.27007 28.455H11.8651C12.7351 28.455 13.8301 28.86 14.4901 29.43L16.8601 31.47C17.4751 31.995 18.5551 31.995 19.1701 31.47L21.5401 29.43C22.2001 28.875 23.2951 28.455 24.1651 28.455H26.7151C27.6901 28.455 28.4851 27.66 28.4851 26.685V24.135C28.4851 23.265 28.8901 22.17 29.4601 21.51L31.5001 19.14C32.0251 18.525 32.0251 17.445 31.5001 16.83L29.4601 14.46C28.8901 13.8 28.4851 12.705 28.4851 11.835V9.3C28.4851 8.325 27.6901 7.53 26.7151 7.53H24.1651C23.2951 7.53 22.2001 7.125 21.5401 6.555L19.1701 4.515C18.5551 3.99 17.4751 3.99 16.8601 4.515L14.4901 6.57C13.8301 7.125 12.7201 7.53 11.8651 7.53H9.27007Z" fill="#555454"/>
</g>
</g>
</svg>
