<svg width="36" height="36" viewBox="0 0 36 36" fill="none" xmlns="http://www.w3.org/2000/svg">
<g id="vuesax/outline/video-play">
<g id="video-play">
<path id="Vector" d="M22.5 34.125H13.5C5.355 34.125 1.875 30.645 1.875 22.5V13.5C1.875 5.355 5.355 1.875 13.5 1.875H22.5C30.645 1.875 34.125 5.355 34.125 13.5V22.5C34.125 30.645 30.645 34.125 22.5 34.125ZM13.5 4.125C6.585 4.125 4.125 6.585 4.125 13.5V22.5C4.125 29.415 6.585 31.875 13.5 31.875H22.5C29.415 31.875 31.875 29.415 31.875 22.5V13.5C31.875 6.585 29.415 4.125 22.5 4.125H13.5Z" fill="#555454"/>
<path id="Vector_2" d="M32.22 11.79H3.78003C3.16503 11.79 2.65503 11.28 2.65503 10.665C2.65503 10.05 3.15003 9.54004 3.78003 9.54004H32.22C32.835 9.54004 33.345 10.05 33.345 10.665C33.345 11.28 32.85 11.79 32.22 11.79Z" fill="#555454"/>
<path id="Vector_3" d="M12.78 11.58C12.165 11.58 11.655 11.07 11.655 10.455V3.16504C11.655 2.55004 12.165 2.04004 12.78 2.04004C13.395 2.04004 13.905 2.55004 13.905 3.16504V10.455C13.905 11.07 13.395 11.58 12.78 11.58Z" fill="#555454"/>
<path id="Vector_4" d="M23.22 10.905C22.605 10.905 22.095 10.395 22.095 9.78004V3.16504C22.095 2.55004 22.605 2.04004 23.22 2.04004C23.835 2.04004 24.345 2.55004 24.345 3.16504V9.78004C24.345 10.41 23.85 10.905 23.22 10.905Z" fill="#555454"/>
<path id="Vector_5" d="M16.635 27.18C16.095 27.18 15.585 27.045 15.12 26.79C14.1 26.19 13.5 24.99 13.5 23.475V19.875C13.5 18.36 14.1 17.145 15.135 16.545C16.17 15.945 17.52 16.035 18.825 16.8L21.945 18.6C23.25 19.35 24.015 20.475 24.015 21.675C24.015 22.875 23.25 24 21.93 24.75L18.81 26.55C18.09 26.97 17.34 27.18 16.635 27.18ZM16.65 18.405C16.5 18.405 16.365 18.435 16.26 18.495C15.945 18.675 15.75 19.185 15.75 19.875V23.475C15.75 24.15 15.945 24.66 16.26 24.855C16.575 25.035 17.115 24.945 17.7 24.6L20.82 22.8C21.405 22.455 21.765 22.035 21.765 21.675C21.765 21.315 21.42 20.895 20.82 20.55L17.7 18.75C17.31 18.525 16.935 18.405 16.65 18.405Z" fill="#555454"/>
</g>
</g>
</svg>
